<?xml version="1.0" encoding="UTF-8" standalone="no"?>
<!-- Created with Inkscape (http://www.inkscape.org/) -->

<svg
   width="360"
   height="360"
   viewBox="0 0 95.249998 95.249999"
   version="1.1"
   id="svg5"
   inkscape:version="1.2.1 (9c6d41e410, 2022-07-14)"
   sodipodi:docname="cat ears.svg"
   inkscape:export-filename="cat ears.png"
   inkscape:export-xdpi="96"
   inkscape:export-ydpi="96"
   xmlns:inkscape="http://www.inkscape.org/namespaces/inkscape"
   xmlns:sodipodi="http://sodipodi.sourceforge.net/DTD/sodipodi-0.dtd"
   xmlns="http://www.w3.org/2000/svg"
   xmlns:svg="http://www.w3.org/2000/svg">
  <sodipodi:namedview
     id="namedview7"
     pagecolor="#505050"
     bordercolor="#eeeeee"
     borderopacity="1"
     inkscape:showpageshadow="0"
     inkscape:pageopacity="0"
     inkscape:pagecheckerboard="0"
     inkscape:deskcolor="#505050"
     inkscape:document-units="mm"
     showgrid="false"
     inkscape:zoom="0.74"
     inkscape:cx="196.62162"
     inkscape:cy="212.16216"
     inkscape:window-width="1366"
     inkscape:window-height="697"
     inkscape:window-x="-8"
     inkscape:window-y="-8"
     inkscape:window-maximized="1"
     inkscape:current-layer="layer1" />
  <defs
     id="defs2" />
  <g
     inkscape:label="Layer 1"
     inkscape:groupmode="layer"
     id="layer1">
    <path
       style="fill:#ffaaaa;stroke-width:0.264583"
       id="path569"
       d="m 23.862508,49.598325 c -0.652815,-0.758457 -1.654341,-1.152339 -2.510618,-1.644483 -0.51531,-0.393459 -0.359208,-0.128968 -0.119757,0.20778 -0.036,-0.390237 -5.554772,0.11888 -5.518772,0.509114 v 0 c 0.336692,1.479672 0.558566,2.353262 1.777399,3.340166 0.995184,0.761878 2.083876,1.286018 3.205569,1.832914 0.300202,0.223883 3.46638,-4.021608 3.166179,-4.245491 z" />
    <path
       style="fill:#ffaaaa;stroke-width:0.264583"
       id="path481"
       d="m 20.651746,53.346603 c 4.44437,3.172653 9.642434,5.077246 14.681469,7.088294 1.8059,0.903803 4.100613,1.75052 5.52659,3.259497 0.233463,0.247052 0.429802,0.526711 0.644702,0.790067 1.78798,2.46044 3.902935,4.629118 6.125115,6.693664 1.594519,1.350889 3.246019,2.638629 4.710115,4.133006 1.317617,1.399593 2.567662,2.613943 4.193587,3.655886 0.865593,0.625906 1.73463,1.243031 2.59937,1.869715 0.535477,0.371253 0.915374,0.884759 1.341361,1.3756 0.234198,0.301909 4.503809,-3.010146 4.269613,-3.312054 v 0 c -0.59581,-0.4807 -0.965571,-1.144286 -1.5542,-1.636154 -0.336402,-0.349292 -0.641011,-0.743543 -0.993163,-1.075293 -0.499208,-0.470286 -1.068753,-0.879718 -1.58183,-1.335696 -1.18731,-1.004446 -2.517508,-1.872176 -3.458184,-3.132664 C 55.699553,70.162758 54.159102,68.683798 52.753315,67.07965 51.71206,66.029675 50.75034,64.900804 49.70673,63.855549 48.388732,62.535474 48.717882,63.003583 47.474346,61.831534 47.162849,61.537944 46.871728,61.223461 46.570418,60.919423 44.428462,58.704979 42.646229,56.13088 40.039514,54.393192 39.337043,53.920249 38.651949,53.420411 37.9321,52.974361 33.529135,50.246097 28.634261,48.078945 23.382962,47.972937 23.002987,47.779812 20.27177,53.153476 20.651746,53.346603 Z" />
    <path
       style="fill:#ffaaaa;stroke-width:1.35135"
       d="m 290.39273,90.828231 c -13.10201,7.218124 -26.14842,15.011929 -39.78304,21.434229 -37.88253,20.10925 -73.50379,44.82644 -113.81704,59.9583 -9.41531,4.50158 -19.93773,6.78235 -29.35494,10.73163 4.01923,5.05268 13.31933,5.23068 19.24884,8.77322 29.02904,13.38214 48.70719,40.05121 71.33154,61.77139 13.86452,14.42916 28.17587,28.43476 43.23507,41.61491 5.01514,-0.48406 3.7858,-8.5239 6.22361,-11.9431 15.78995,-42.44789 32.85412,-84.9059 41.05785,-129.62679 1.96253,-20.55076 2.40287,-41.53908 3.59745,-61.924621 -0.38262,-0.561106 -1.07454,-0.842492 -1.73934,-0.789168 z"
       id="path562"
       transform="scale(0.26458333)" />
    <path
       style="fill:#d35f5f;fill-opacity:1;stroke-width:0.264583"
       id="path2351"
       d="m 73.430261,23.627018 c -0.143184,0.05561 -0.293576,0.09538 -0.429553,0.166829 -1.186302,0.623304 -0.251915,0.235243 -1.386425,0.873389 -0.748596,0.421074 -1.603327,0.661049 -2.404798,0.95686 -2.063702,0.775118 -4.120361,1.55711 -6.09745,2.535349 -1.076994,0.467495 -1.870596,1.367928 -2.860368,1.962563 -1.977755,1.289084 -1.590902,2.955856 -0.07596,5.203626 0.46492,0.689814 3.627482,1.324441 4.153688,1.456688 1.65536,0.03226 3.311869,0.166383 4.966081,0.09678 3.28876,-0.138372 7.652081,-1.343109 9.781119,-4.076448 0.403059,-0.517465 0.62492,-1.15342 0.937379,-1.730132 0.06224,-0.79207 0.316701,-1.592408 0.186709,-2.376212 -0.28502,-1.718535 -1.55792,-2.877416 -3.000203,-3.626716 -0.692378,-0.359705 -0.508082,-0.419035 -0.826373,-0.274757 1.985579,2.673671 -3.708019,1.977849 -4.529199,2.306157 -0.408937,0.163491 -0.363923,0.813848 -0.430104,1.249254 -0.132005,0.868479 -0.106407,1.753682 -0.159609,2.630524 0.05334,3.04051 -0.01262,3.239575 0.31284,6.243151 0.09355,0.863285 0.174252,1.731457 0.35586,2.580592 0.115263,0.538938 -0.01746,1.510986 0.530939,1.565807 5.5924,0.559057 5.184767,0.204624 6.968072,-2.715186 1.003858,-4.133574 1.112279,-8.407302 0.858091,-12.63529 -0.06773,-1.126519 -0.100436,-2.267593 -0.355497,-3.366945 -0.129029,-0.556126 -0.208764,-1.538678 -0.779499,-1.525026 -1.797079,0.04298 -3.41925,1.110899 -5.128877,1.666349 -0.539792,0.244031 -1.337381,0.211127 -1.619379,0.732092 -0.505436,0.933747 -1.007772,6.611322 -1.064451,7.43706 -0.07554,1.100434 -0.255905,5.233834 -0.01386,6.608543 0.06631,0.376634 0.370332,0.669221 0.555498,1.003829 -0.141335,0.230616 5.569987,0.03028 6.126345,-2.050018 0.964655,-3.607001 -2.121194,-6.561389 -6.136367,-5.773002 -1.27644,0.250629 -1.680525,1.986029 -2.520789,2.979042 -0.369821,0.916969 -0.778616,1.819166 -1.109464,2.750907 -0.265343,0.747249 -0.467294,1.515785 -0.677127,2.280478 -0.129074,0.47039 -0.826257,1.396238 -0.339241,1.423466 0.567217,0.03171 0.493631,-1.111297 0.990315,-1.387065 3.184982,-1.768342 3.20136,0.874665 2.208146,-2.698461 -0.322914,-0.840994 -0.624927,-1.690312 -0.96874,-2.522979 -0.297246,-0.7199 -0.600901,-1.438699 -0.953744,-2.133039 -0.0978,-0.192456 -0.26612,-0.690722 -0.39212,-0.51543 -0.446911,0.621742 -0.27291,1.591305 -0.788273,2.157598 -0.502624,0.552296 -1.712757,0.26725 -2.032609,0.942049 -0.222221,0.468825 0.690076,0.774925 1.035114,1.162386 -2.114704,-2.848041 1.61386,2.175859 1.780844,1.432546 0.189039,-0.841483 -0.22365,-1.790483 0.112009,-2.584939 0.260037,-0.615471 1.483849,-0.630444 1.528161,-1.29712 0.03429,-0.515855 -0.9321,-0.447574 -1.397187,-0.673354 -0.589902,-0.286374 -1.178513,-0.575402 -1.767772,-0.863105 -0.595135,-0.243335 -1.163751,-0.565859 -1.785408,-0.730007 -2.723629,-0.719158 -4.495194,0.351547 -6.005039,3.785648 -0.441558,1.004316 0.621083,2.121067 1.140746,3.087283 1.178409,2.191033 2.562323,3.182469 4.355214,4.83513 2.106297,1.509888 4.909269,3.435528 7.661499,3.411038 0.914834,-0.0081 1.960814,0.294307 2.738157,-0.188108 0.816433,-0.506675 1.010555,-1.634596 1.515833,-2.451894 -0.07425,-0.428069 -0.129284,-0.85992 -0.222753,-1.284208 -0.02077,-0.0943 -0.09086,-0.356947 -0.118404,-0.264396 -0.391435,1.315247 3.448164,-1.055425 -0.520025,2.399612 -0.702969,0.612061 -1.788996,0.691005 -2.72233,0.76716 2.153928,1.280065 3.634836,0.617588 5.617655,-1.789324 0.445532,-0.540825 -0.335209,-2.556299 -0.527929,-3.1457 -0.901091,-1.751791 -2.205095,-3.19722 -4.051083,-3.975196 -0.734287,-0.309459 -1.567788,-0.41207 -2.344541,-0.5461 -0.627137,-0.108714 -1.295514,-0.01958 -1.907183,-0.230219 -0.556334,-0.191585 -1.093369,-0.495067 -1.60918,-0.77457 -0.234471,-0.165579 -0.796367,-0.568209 -1.031396,-0.709065 -0.08325,-0.04989 -0.187203,-0.06234 -0.265287,-0.119983 -0.18234,-0.134594 -0.329449,-0.312402 -0.508574,-0.451244 -0.522097,-0.404678 -0.649439,-0.449258 -1.183688,-0.737857 -1.646452,-0.878422 -3.524213,-0.779629 -5.297024,-0.356304 -0.342416,0.219557 -0.734865,0.375891 -1.027253,0.65867 -1.145141,1.107501 -1.360525,2.59122 -0.8597,4.058967 0.308232,0.903333 0.673129,1.17475 1.28692,1.862442 1.445937,1.163182 2.988966,2.193459 4.685398,2.951686 1.465527,0.834568 3.137275,1.10462 4.738856,1.562304 1.286304,0.257231 2.512719,0.732306 3.784894,1.037355 1.374452,0.244057 0.767051,0.182094 2.897373,0.140837 0.236405,-0.0046 0.476086,-0.0075 0.706914,-0.05874 0.762383,-0.16928 1.470488,-0.573206 2.155671,-0.929187 0.45507,-0.16749 1.687774,-1.714334 2.139117,-1.817164 0.02408,-0.0055 0.02445,0.04294 0.03668,0.06441 0.310377,-0.225629 -2.880508,-4.615011 -3.190886,-4.389382 v 0 c -0.690996,0.416827 -0.613513,0.336571 -1.202404,0.809371 -0.334267,0.268369 -0.636236,0.642157 -0.996191,0.871749 -0.01439,0.0092 -0.02622,-0.02183 -0.03933,-0.03275 -0.276923,0.102103 -0.467021,0.08825 -0.750271,0.10392 -0.15385,0.0085 -0.610547,0.03038 -0.458747,0.05681 0.941496,0.163904 1.458899,-0.126748 0.925409,0.13765 -0.448241,-0.03041 -0.712179,-0.188227 -1.126472,-0.383 -0.773215,-0.363517 -1.563999,-0.69223 -2.387713,-0.924566 -1.21302,-0.211725 -2.500789,-0.336296 -3.61999,-0.860459 -0.978151,-0.622631 -1.998776,-1.142312 -3.028452,-1.673548 -0.217562,-0.112247 -0.420495,-0.255982 -0.649058,-0.34368 -0.09931,-0.0381 -0.211949,-0.01823 -0.317923,-0.02735 -0.04645,0.0021 -0.31891,-0.005 -0.355925,0.06983 -0.06927,0.140083 -0.04477,0.3107 -0.09165,0.459777 -0.22443,0.713676 -0.526296,1.247687 -1.197843,1.614016 0.549096,-0.03473 1.587236,0.14255 -0.502576,-0.0062 -0.32309,-0.02299 0.819444,-0.135678 0.542087,-0.23005 0.08456,0.02959 0.165684,0.07198 0.253687,0.08878 0.03408,0.0065 0.06937,-0.03272 0.101979,-0.02088 0.437912,0.159028 1.233355,1.588064 1.745919,1.697479 0.270068,0.221266 0.525724,0.461399 0.810204,0.6638 1.356551,0.96515 3.198204,1.670654 4.85983,1.753219 0.04349,-0.0019 1.256972,-0.07828 1.315006,-0.06793 0.684569,0.122106 0.948721,0.927672 1.42404,1.33685 0.156684,0.153974 0.251566,0.484754 0.470054,0.461925 0.209904,-0.02193 0.141078,-0.437192 0.322656,-0.544756 3.838083,-2.273569 4.741974,-1.257067 2.629562,-1.938948 -1.415161,-0.451964 -2.257126,-0.899642 -3.980606,0.395232 -0.613066,0.460602 -0.621038,1.413647 -0.782468,2.163275 -0.05575,0.258885 0.08365,0.523703 0.148537,0.780447 0.01918,0.07589 0.09036,0.28884 0.102147,0.211455 0.04075,-0.267406 -0.0071,-0.540938 -0.01074,-0.811405 2.328667,-3.267277 0.287452,-1.575351 3.719708,-2.177415 0.105537,-0.01852 -0.08126,-0.203232 -0.153323,-0.282523 -1.220039,-1.342321 -2.781951,-2.353122 -4.107526,-3.57487 -0.568788,-0.435104 -3.697399,-2.883503 -4.41025,-3.216809 -2.096429,-0.980226 -4.876557,1.379209 -6.089362,2.209099 -0.761486,0.521062 5.839908,2.461223 2.17087,1.717455 0.858162,0.400119 1.679411,0.891535 2.574488,1.200357 2.410725,0.83176 5.572808,1.334568 7.876127,-0.353418 1.957382,-1.434467 2.030725,-4.399303 0.961808,-6.248161 -0.442619,-0.765575 -1.228558,-1.272281 -1.842839,-1.908421 -2.474825,-1.597089 -4.105671,-3.210357 -7.671329,-2.086592 -1.247997,0.393324 -2.015151,1.752542 -2.648212,2.897719 -1.433533,2.593205 0.624981,6.316586 1.719258,8.544722 2.221801,2.984333 2.817304,4.857765 7.600444,5.029353 1.202156,0.04312 2.22173,-1.013291 3.120263,-1.813084 0.998194,-0.888502 1.733608,-3.407089 1.942333,-4.582694 0.123013,-0.692841 0.06439,-1.405879 0.09659,-2.108819 -2.63534,-0.577932 -0.825767,-0.09131 -5.208939,-2.114037 -0.284067,-0.06736 -0.218935,0.562592 -0.195969,0.853631 0.06699,0.849026 0.829609,5.112861 1.731232,5.468826 1.86027,0.734438 3.999947,-0.02098 5.999919,-0.03148 0.445866,-0.558475 1.04085,-1.025319 1.337599,-1.675419 0.874913,-1.916707 1.209582,-5.241054 1.274477,-7.213089 0.08498,-2.582394 -0.03992,-5.729019 -0.950069,-8.211573 -0.497533,-1.357089 -1.330306,-2.566556 -1.995461,-3.849834 -1.84921,0.444981 -3.835852,0.505844 -5.547627,1.334944 -1.395391,0.675857 -1.694339,4.946096 -1.743678,5.54956 -0.356296,4.357809 0.09505,8.738703 1.346702,12.924588 1.773651,3.838906 1.039548,4.603581 7.363161,2.433617 0.600043,-0.205907 0.453311,-1.19475 0.551625,-1.821474 0.264639,-1.687034 0.198667,-4.509569 0.01878,-6.13727 -0.127339,-1.152252 -0.39188,-2.285179 -0.587817,-3.427767 -0.122451,-0.38015 -1.431509,-5.053734 -2.238965,-5.384234 -3.446359,-1.410628 -5.682149,-1.798429 -5.883214,1.206567 -0.03143,0.469745 0.09491,0.9466 0.255926,1.389007 0.171911,0.47235 0.486572,0.879726 0.729859,1.319591 0.688218,0.6766 0.70318,0.820266 1.43533,1.196673 0.262199,0.1348 0.747506,0.433192 0.869016,0.164576 0.261829,-0.57881 -0.222033,-1.356884 0.364448,-1.870657 -0.06384,-0.05676 -0.106228,-0.175093 -0.191511,-0.170267 -0.357579,0.02024 -0.697013,0.165354 -1.047224,0.240344 -0.583247,0.124889 -1.166651,0.249696 -1.75297,0.35926 -0.751335,0.140398 -1.503267,0.279651 -2.259523,0.390543 -3.012982,0.441804 -1.80295,-0.146635 -3.288392,0.725641 -0.746895,0.17522 -1.528419,0.24066 -2.240691,0.525666 -0.314954,0.126024 -0.730982,0.337609 -0.761195,0.675495 -0.09942,1.111805 0.319759,2.211226 0.403529,3.32432 0.0082,0.10949 -0.136308,0.192757 -0.130588,0.302408 0.0108,0.206756 0.880044,-1.049933 0.518499,-0.341966 0.237183,-0.180787 0.44986,-0.396256 0.704519,-0.551463 0.383654,-0.233828 1.244505,-0.02808 1.565558,-0.339939 0.982531,-0.290817 1.97294,-0.566211 2.935949,-0.918308 1.430073,-0.522862 0.999379,-0.39773 2.334258,-1.014743 0.35348,-0.163388 0.711829,-0.316032 1.067747,-0.474049 1.943441,-0.912138 3.795202,-2.041588 5.025197,-3.852159 0.232928,-0.300289 -4.013809,-3.594398 -4.246738,-3.294108 z" />
    <path
       style="fill:#000000;stroke-width:0.264583"
       id="path365"
       d="m 16.111184,49.262011 c 0.764794,0.09821 1.524166,0.258291 2.294383,0.294616 3.2699,0.15421 6.631304,-0.360839 9.807914,-1.093883 1.886556,-0.435345 4.507743,-1.288894 6.366301,-1.868072 7.490872,-3.088253 -1.350283,0.63839 5.944555,-2.692641 4.755396,-2.171451 2.239946,-0.69729 7.017051,-3.248265 1.597076,-0.85284 4.993156,-2.874182 6.581159,-3.809458 3.70532,-2.048711 7.215272,-4.440399 10.980875,-6.38121 1.155102,-0.595347 3.960884,-1.902439 5.106672,-2.441707 3.087881,-1.604328 6.10353,-3.329053 8.751785,-5.607109 1.155327,-0.993823 1.638517,-1.568728 2.640824,-2.648599 -0.717986,0.189813 1.802678,-1.73156 1.056119,-1.846523 -1.461079,-0.224994 -2.909448,-0.673928 -4.387498,-0.646709 -0.281845,0.0052 -0.345096,0.462874 -0.417901,0.735201 -0.184531,0.690236 -0.2295,1.410404 -0.34425,2.115607 -0.563835,4.937811 -0.816007,9.90551 -1.031142,14.868807 -0.0613,1.414135 -0.009,2.834354 -0.134294,4.244263 -0.125627,1.414129 -0.411417,2.809433 -0.617128,4.214149 -1.252598,4.724193 -2.511607,9.45997 -4.061798,14.097971 -0.500351,1.496996 -1.077741,2.967151 -1.607328,4.454056 -2.161424,6.068581 -0.662633,2.156629 -2.989578,7.984871 -1.157488,2.572517 -1.829178,5.313754 -2.802061,7.952139 -0.289918,0.786231 -0.640633,1.689471 -1.099482,2.411585 -0.169061,0.26606 -0.384609,0.499552 -0.576913,0.749326 -0.773121,0.859295 -1.855798,1.334958 -2.676017,2.140847 -0.203512,0.199956 -0.373176,0.431668 -0.559766,0.647504 -0.147166,0.22089 -0.294336,0.44178 -0.441502,0.662673 -0.199919,0.328724 4.448955,3.155982 4.648872,2.827256 v 0 c 0.02971,-0.01156 0.05942,-0.0231 0.08913,-0.03466 0.381646,-0.126714 0.0028,0.01201 0.619363,-0.312164 1.2676,-0.666488 2.42973,-1.476845 3.461885,-2.481841 3.137945,-3.472011 5.957575,-7.25477 8.071858,-11.444454 0.609232,-1.309804 1.21738,-2.620114 1.827697,-3.929412 0.652174,-1.399093 1.353823,-2.776035 1.959771,-4.19576 2.804306,-6.570451 4.944949,-13.459796 5.678996,-20.587679 0.306808,-3.31017 0.626451,-5.980173 0.662741,-9.291052 0.05586,-5.096492 -0.401113,-10.227691 -1.229497,-15.252621 -0.01042,-0.04324 -0.888778,-3.952318 -1.161291,-4.128657 -4.02572,-2.604978 -3.441507,-2.263084 -5.404027,-1.16455 -1.314365,0.735724 0.121867,-0.156975 -1.518171,0.906528 -1.413063,0.982342 -2.836426,1.979213 -4.339127,2.821985 -2.177976,1.221494 -4.463929,2.262286 -6.724007,3.317758 -2.65602,1.300176 -5.311595,2.597797 -7.962376,3.908249 -0.219038,0.108285 -5.79568,2.809513 -5.812084,2.817982 -1.072232,0.553646 -2.117407,1.158187 -3.176111,1.737281 -1.774656,0.959964 -4.858451,2.613887 -6.598711,3.612994 -1.0888,0.625091 -2.164014,1.273717 -3.237137,1.925357 -0.972106,0.590296 -1.897256,1.260446 -2.898265,1.800278 -1.78754,0.963998 -3.164263,1.324067 -5.083135,1.957906 -3.065137,0.774636 -6.148256,1.451724 -9.223872,2.182923 -2.087602,0.496308 -3.440171,0.763953 -5.418184,1.491107 -0.502719,0.184809 -0.975638,0.442328 -1.463457,0.663493 -0.393315,0.100986 1.034844,5.663298 1.428159,5.562312 z" />
  </g>
</svg>
